{
    "asset" : {
        "generator" : "Khronos glTF Blender I/O v3.2.43",
        "version" : "2.0"
    },
    "scene" : 0,
    "scenes" : [
        {
            "name" : "Scene",
            "nodes" : [
                13
            ]
        }
    ],
    "nodes" : [
        {
            "mesh" : 0,
            "name" : "Back.001"
        },
        {
            "children" : [
                0
            ],
            "name" : "A",
            "translation" : [
                1.3125,
                0,
                0
            ]
        },
        {
            "mesh" : 1,
            "name" : "Back.005"
        },
        {
            "children" : [
                2
            ],
            "name" : "D",
            "translation" : [
                -1.6875,
                0,
                0
            ]
        },
        {
            "mesh" : 2,
            "name" : "Back.004",
            "translation" : [
                0,
                0.5,
                0
            ]
        },
        {
            "children" : [
                4
            ],
            "name" : "E",
            "translation" : [
                -0.9375,
                0,
                0
            ]
        },
        {
            "mesh" : 3,
            "name" : "Back"
        },
        {
            "children" : [
                6
            ],
            "name" : "P",
            "translation" : [
                2.0625,
                0,
                0
            ]
        },
        {
            "mesh" : 4,
            "name" : "Back.003",
            "translation" : [
                0,
                0.5,
                0
            ]
        },
        {
            "children" : [
                8
            ],
            "name" : "S",
            "translation" : [
                -0.1875,
                0,
                0
            ]
        },
        {
            "mesh" : 5,
            "name" : "Back.002"
        },
        {
            "children" : [
                10
            ],
            "name" : "U",
            "translation" : [
                0.5625,
                0,
                0
            ]
        },
        {
            "children" : [
                1,
                3,
                5,
                7,
                9,
                11
            ],
            "name" : "root",
            "translation" : [
                0,
                -0.5,
                0
            ]
        },
        {
            "children" : [
                12
            ],
            "name" : "Node_13"
        }
    ],
    "materials" : [
        {
            "doubleSided" : true,
            "name" : "Material",
            "pbrMetallicRoughness" : {
                "baseColorFactor" : [
                    0.4000000059604645,
                    0.4000000059604645,
                    0.4000000059604645,
                    1
                ],
                "metallicFactor" : 0,
                "roughnessFactor" : 0.4000000059604645
            }
        }
    ],
    "meshes" : [
        {
            "name" : "Mesh_1.005",
            "primitives" : [
                {
                    "attributes" : {
                        "POSITION" : 0,
                        "NORMAL" : 1,
                        "TEXCOORD_0" : 2
                    },
                    "indices" : 3,
                    "material" : 0
                }
            ]
        },
        {
            "name" : "Mesh_5.005",
            "primitives" : [
                {
                    "attributes" : {
                        "POSITION" : 4,
                        "NORMAL" : 5,
                        "TEXCOORD_0" : 6
                    },
                    "indices" : 7,
                    "material" : 0
                }
            ]
        },
        {
            "name" : "Mesh_4.005",
            "primitives" : [
                {
                    "attributes" : {
                        "POSITION" : 8,
                        "NORMAL" : 9,
                        "TEXCOORD_0" : 10
                    },
                    "indices" : 11,
                    "material" : 0
                }
            ]
        },
        {
            "name" : "Mesh_0.005",
            "primitives" : [
                {
                    "attributes" : {
                        "POSITION" : 12,
                        "NORMAL" : 13,
                        "TEXCOORD_0" : 14
                    },
                    "indices" : 15,
                    "material" : 0
                }
            ]
        },
        {
            "name" : "Mesh_3.005",
            "primitives" : [
                {
                    "attributes" : {
                        "POSITION" : 16,
                        "NORMAL" : 17,
                        "TEXCOORD_0" : 18
                    },
                    "indices" : 19,
                    "material" : 0
                }
            ]
        },
        {
            "name" : "Mesh_2.005",
            "primitives" : [
                {
                    "attributes" : {
                        "POSITION" : 20,
                        "NORMAL" : 21,
                        "TEXCOORD_0" : 22
                    },
                    "indices" : 23,
                    "material" : 0
                }
            ]
        }
    ],
    "accessors" : [
        {
            "bufferView" : 0,
            "componentType" : 5126,
            "count" : 640,
            "max" : [
                0.0625,
                1,
                0.0625
            ],
            "min" : [
                -0.4375,
                0,
                -0.0625
            ],
            "type" : "VEC3"
        },
        {
            "bufferView" : 1,
            "componentType" : 5126,
            "count" : 640,
            "type" : "VEC3"
        },
        {
            "bufferView" : 2,
            "componentType" : 5126,
            "count" : 640,
            "type" : "VEC2"
        },
        {
            "bufferView" : 3,
            "componentType" : 5123,
            "count" : 960,
            "type" : "SCALAR"
        },
        {
            "bufferView" : 4,
            "componentType" : 5126,
            "count" : 108,
            "max" : [
                0.0625,
                1,
                0.0625
            ],
            "min" : [
                -0.4375,
                0,
                -0.0625
            ],
            "type" : "VEC3"
        },
        {
            "bufferView" : 5,
            "componentType" : 5126,
            "count" : 108,
            "type" : "VEC3"
        },
        {
            "bufferView" : 6,
            "componentType" : 5126,
            "count" : 108,
            "type" : "VEC2"
        },
        {
            "bufferView" : 7,
            "componentType" : 5123,
            "count" : 162,
            "type" : "SCALAR"
        },
        {
            "bufferView" : 8,
            "componentType" : 5126,
            "count" : 136,
            "max" : [
                0.0625,
                0.5,
                0.0625
            ],
            "min" : [
                -0.4375,
                -0.5,
                -0.0625
            ],
            "type" : "VEC3"
        },
        {
            "bufferView" : 9,
            "componentType" : 5126,
            "count" : 136,
            "type" : "VEC3"
        },
        {
            "bufferView" : 10,
            "componentType" : 5126,
            "count" : 136,
            "type" : "VEC2"
        },
        {
            "bufferView" : 11,
            "componentType" : 5123,
            "count" : 204,
            "type" : "SCALAR"
        },
        {
            "bufferView" : 12,
            "componentType" : 5126,
            "count" : 576,
            "max" : [
                0.0625,
                1,
                0.0625
            ],
            "min" : [
                -0.4375,
                0,
                -0.0625
            ],
            "type" : "VEC3"
        },
        {
            "bufferView" : 13,
            "componentType" : 5126,
            "count" : 576,
            "type" : "VEC3"
        },
        {
            "bufferView" : 14,
            "componentType" : 5126,
            "count" : 576,
            "type" : "VEC2"
        },
        {
            "bufferView" : 15,
            "componentType" : 5123,
            "count" : 864,
            "type" : "SCALAR"
        },
        {
            "bufferView" : 16,
            "componentType" : 5126,
            "count" : 152,
            "max" : [
                0.0625,
                0.5,
                0.0625
            ],
            "min" : [
                -0.4375,
                -0.5,
                -0.0625
            ],
            "type" : "VEC3"
        },
        {
            "bufferView" : 17,
            "componentType" : 5126,
            "count" : 152,
            "type" : "VEC3"
        },
        {
            "bufferView" : 18,
            "componentType" : 5126,
            "count" : 152,
            "type" : "VEC2"
        },
        {
            "bufferView" : 19,
            "componentType" : 5123,
            "count" : 228,
            "type" : "SCALAR"
        },
        {
            "bufferView" : 20,
            "componentType" : 5126,
            "count" : 88,
            "max" : [
                0.0625,
                1,
                0.0625
            ],
            "min" : [
                -0.4375,
                0,
                -0.0625
            ],
            "type" : "VEC3"
        },
        {
            "bufferView" : 21,
            "componentType" : 5126,
            "count" : 88,
            "type" : "VEC3"
        },
        {
            "bufferView" : 22,
            "componentType" : 5126,
            "count" : 88,
            "type" : "VEC2"
        },
        {
            "bufferView" : 23,
            "componentType" : 5123,
            "count" : 132,
            "type" : "SCALAR"
        }
    ],
    "bufferViews" : [
        {
            "buffer" : 0,
            "byteLength" : 7680,
            "byteOffset" : 0
        },
        {
            "buffer" : 0,
            "byteLength" : 7680,
            "byteOffset" : 7680
        },
        {
            "buffer" : 0,
            "byteLength" : 5120,
            "byteOffset" : 15360
        },
        {
            "buffer" : 0,
            "byteLength" : 1920,
            "byteOffset" : 20480
        },
        {
            "buffer" : 0,
            "byteLength" : 1296,
            "byteOffset" : 22400
        },
        {
            "buffer" : 0,
            "byteLength" : 1296,
            "byteOffset" : 23696
        },
        {
            "buffer" : 0,
            "byteLength" : 864,
            "byteOffset" : 24992
        },
        {
            "buffer" : 0,
            "byteLength" : 324,
            "byteOffset" : 25856
        },
        {
            "buffer" : 0,
            "byteLength" : 1632,
            "byteOffset" : 26180
        },
        {
            "buffer" : 0,
            "byteLength" : 1632,
            "byteOffset" : 27812
        },
        {
            "buffer" : 0,
            "byteLength" : 1088,
            "byteOffset" : 29444
        },
        {
            "buffer" : 0,
            "byteLength" : 408,
            "byteOffset" : 30532
        },
        {
            "buffer" : 0,
            "byteLength" : 6912,
            "byteOffset" : 30940
        },
        {
            "buffer" : 0,
            "byteLength" : 6912,
            "byteOffset" : 37852
        },
        {
            "buffer" : 0,
            "byteLength" : 4608,
            "byteOffset" : 44764
        },
        {
            "buffer" : 0,
            "byteLength" : 1728,
            "byteOffset" : 49372
        },
        {
            "buffer" : 0,
            "byteLength" : 1824,
            "byteOffset" : 51100
        },
        {
            "buffer" : 0,
            "byteLength" : 1824,
            "byteOffset" : 52924
        },
        {
            "buffer" : 0,
            "byteLength" : 1216,
            "byteOffset" : 54748
        },
        {
            "buffer" : 0,
            "byteLength" : 456,
            "byteOffset" : 55964
        },
        {
            "buffer" : 0,
            "byteLength" : 1056,
            "byteOffset" : 56420
        },
        {
            "buffer" : 0,
            "byteLength" : 1056,
            "byteOffset" : 57476
        },
        {
            "buffer" : 0,
            "byteLength" : 704,
            "byteOffset" : 58532
        },
        {
            "buffer" : 0,
            "byteLength" : 264,
            "byteOffset" : 59236
        }
    ],
    "buffers" : [
        {
            "byteLength" : 59500,
            "uri" : "data:application/octet-stream;base64,"
        }
    ]
}
